Exact Audio Copy V0.99 prebeta 1 from 25. May 2007

EAC 抓取日志文件从9. 十二月 2010, 1:19

王昆 / 20世纪中华歌坛名人百集珍藏版

使用驱动器  ：BENQ    DVD-ROM 16X   Adapter: 0  ID: 1

读取模式     : 保护
使用精确流   : 是
废除音频缓冲 : 是
使用 C2 指针 : 否

读取偏移校正                   : 738
读取 Lead-In 和 Lead-Out       : 否
用静音填充抓取中丢失偏移的采样 : 是
去除首尾静音块                 : 否
已用接口                       : 已安装外部 ASPI 接口

所用输出格式 : 内部 WAV 函数
样本格式     : 44.100 Hz;16 Bit;立体声


被抓轨 CD 的 TOC

     音轨 |   开始   |   长度   | 起始扇区 | 结尾扇区 
    --------------------------------------------------
       1  |  0:00.00 |  1:36.30 |       0  |    7229  
       2  |  1:36.30 |  3:06.52 |    7230  |   21231  
       3  |  4:43.07 |  3:52.25 |   21232  |   38656  
       4  |  8:35.32 |  2:33.15 |   38657  |   50146  
       5  | 11:08.47 |  3:38.33 |   50147  |   66529  
       6  | 14:47.05 |  2:47.52 |   66530  |   79106  
       7  | 17:34.57 |  3:12.25 |   79107  |   93531  
       8  | 20:47.07 |  2:01.68 |   93532  |  102674  
       9  | 22:49.00 |  3:03.02 |  102675  |  116401  
      10  | 25:52.02 |  2:09.05 |  116402  |  126081  
      11  | 28:01.07 |  2:21.13 |  126082  |  136669  
      12  | 30:22.20 |  2:52.67 |  136670  |  149636  
      13  | 33:15.12 |  4:20.30 |  149637  |  169166  
      14  | 37:35.42 |  2:02.18 |  169167  |  178334  
      15  | 39:37.60 |  3:45.35 |  178335  |  195244  
      16  | 43:23.20 |  8:54.37 |  195245  |  235331  


范围状态及错误

已选择范围

     文件名 E:\文件夹\20世纪中华歌坛名人百集珍藏版-王昆[lwg188原创]\王昆 - 20世纪中华歌坛名人百集珍藏版.wav

     峰值电平 100.0 %
     范围质量 100.0 %
     复制 CRC C1DDC354
     复制成功

没有错误发生

状态报告结尾
